<svg id="Layer_1" data-name="Layer 1" xmlns="http://www.w3.org/2000/svg" viewBox="0 0 383.867 135.819"><title>wix-logo</title><path d="M383.355,130.22h-4.476V128h4.476ZM367.947,107.5a6.387,6.387,0,0,0-2.6.751,5.793,5.793,0,0,0-1.879,1.64,6.572,6.572,0,0,0-1.127,2.357,10.941,10.941,0,0,0-.376,2.836,8.5,8.5,0,0,0,.82,3.69,7.146,7.146,0,0,0,2.255,2.665,10.182,10.182,0,0,0,3.211,1.639,12.28,12.28,0,0,0,3.724.547,15.776,15.776,0,0,0,4.134-.512,9.373,9.373,0,0,0,3.314-1.606,7.85,7.85,0,0,0,2.187-2.665,8.8,8.8,0,0,0,.785-3.758,7.662,7.662,0,0,0-.512-2.87,7.533,7.533,0,0,0-1.435-2.357,7.04,7.04,0,0,0-2.187-1.674,10.7,10.7,0,0,0-2.8-.888v-1.64a10.55,10.55,0,0,1,3.553,1.093,8.9,8.9,0,0,1,2.631,2.084,8.539,8.539,0,0,1,1.64,2.8,10.059,10.059,0,0,1,.546,3.383,10.771,10.771,0,0,1-.956,4.68,8.889,8.889,0,0,1-2.631,3.177,11.528,11.528,0,0,1-3.792,1.845,17.658,17.658,0,0,1-4.476.581,13.738,13.738,0,0,1-4.441-.683,10.348,10.348,0,0,1-3.622-1.982,9.172,9.172,0,0,1-2.459-3.211,9.96,9.96,0,0,1-.923-4.407,13.291,13.291,0,0,1,.444-3.383,8.253,8.253,0,0,1,1.367-2.8,7.238,7.238,0,0,1,2.289-2.016,8.58,8.58,0,0,1,3.314-.956v1.64Zm4.27-4.271a13.516,13.516,0,0,1-4.475-.683,11.471,11.471,0,0,1-3.724-1.982,9.444,9.444,0,0,1-2.562-3.211,9.96,9.96,0,0,1-.923-4.407,10.177,10.177,0,0,1,.923-4.408,9.055,9.055,0,0,1,2.562-3.211,11.443,11.443,0,0,1,3.724-1.981,14.756,14.756,0,0,1,4.475-.684,13.841,13.841,0,0,1,4.51.684,10.833,10.833,0,0,1,3.724,1.981,9.263,9.263,0,0,1,2.494,3.211,9.967,9.967,0,0,1,.922,4.408,10.17,10.17,0,0,1-.922,4.407,9.684,9.684,0,0,1-2.494,3.211,10.792,10.792,0,0,1-3.724,1.982A14.011,14.011,0,0,1,372.217,103.23Zm0-1.606a13.341,13.341,0,0,0,3.861-.546,10.773,10.773,0,0,0,3.246-1.64,7.595,7.595,0,0,0,3.074-6.355,8.374,8.374,0,0,0-.82-3.689,7.452,7.452,0,0,0-2.254-2.665,10.75,10.75,0,0,0-3.246-1.64,12.859,12.859,0,0,0-3.861-.547,14.42,14.42,0,0,0-3.86.547,10.75,10.75,0,0,0-3.246,1.64,7.592,7.592,0,0,0-3.075,6.354,8.389,8.389,0,0,0,.82,3.69,7.473,7.473,0,0,0,2.255,2.665,10.773,10.773,0,0,0,3.246,1.64A14.657,14.657,0,0,0,372.217,101.624ZM361.08,79.281v-1.64h4.544v-.068a5.223,5.223,0,0,1-1.982-.923A6.647,6.647,0,0,1,362,75.045a8.051,8.051,0,0,1-1.093-2.084,8.762,8.762,0,0,1,.034-5.193,6.694,6.694,0,0,1,1.093-2.016,5.852,5.852,0,0,1,1.5-1.3,5.586,5.586,0,0,1,1.708-.684V63.7a8.164,8.164,0,0,1-3.519-2.665,7.549,7.549,0,0,1-1.2-4.407,9.09,9.09,0,0,1,.444-2.8,6.215,6.215,0,0,1,1.367-2.221,7.1,7.1,0,0,1,2.357-1.469,10.056,10.056,0,0,1,3.383-.513h15.168V51.3H367.981a6.687,6.687,0,0,0-3.348.684,5.22,5.22,0,0,0-1.845,1.537A4.264,4.264,0,0,0,362,55.332c-.068.581-.171,1.059-.171,1.366a7.429,7.429,0,0,0,.513,2.8,6.657,6.657,0,0,0,1.537,2.221,7.967,7.967,0,0,0,2.6,1.469A11.383,11.383,0,0,0,370,63.7h13.255v1.64H367.981a7.546,7.546,0,0,0-3.314.615,5.154,5.154,0,0,0-1.845,1.469,4.011,4.011,0,0,0-.786,1.742,6.214,6.214,0,0,0-.17,1.435,7.742,7.742,0,0,0,.444,2.426,6.88,6.88,0,0,0,1.469,2.289,7.26,7.26,0,0,0,2.562,1.674,10.008,10.008,0,0,0,3.69.683h13.221v1.64h-22.24v-.034Z" transform="translate(0 -19.723)" style="fill:#2e3133"/><path d="M199.7,22.337c-7,3.7-9.5,9.8-9.5,26.7a27.125,27.125,0,0,1,8.7-5.3,34.121,34.121,0,0,0,8.9-4.8c5.9-4.3,6.7-9.8,6.7-19.1,0,0-9.6-.3-14.8,2.5Z" transform="translate(0 -19.723)" style="fill:#ffcb29"/><path d="M158.7,26.337c-5.6,5-7.3,12.9-7.3,12.9l-18.8,72.2-15.5-59.2c-1.5-6.2-4.3-14.1-8.6-19.3-5.4-6.6-16.5-7-17.7-7s-12.4.4-17.9,7.1c-4.3,5.3-7.1,13.1-8.6,19.3l-15.5,59.2-18.6-72.3s-1.6-8-7.3-12.9c-9.2-8.1-22.9-6.4-22.9-6.4l35.7,135.4s11.8.9,17.7-2.2c7.7-3.9,11.5-7,16.2-25.5,4.2-16.4,15.9-64.6,17-68.1.5-1.7,1.2-5.8,4.2-5.8,3.1,0,3.7,4,4.2,5.8,1.1,3.4,12.7,51.7,17,68.1,4.7,18.4,8.4,21.4,16.2,25.5,5.9,3.1,17.7,2.2,17.7,2.2l35.7-135.3s-13.7-1.7-22.9,6.3Zm55.8,15.7a22.983,22.983,0,0,1-7.3,6.4c-3.3,1.8-6.4,3.1-9.8,4.7-5.6,2.7-7.2,5.8-7.2,10.4v91.8s9.1,1.1,14.9-1.8c7.6-3.9,9.3-7.6,9.4-24.5v-87Zm89.2,45.9,45.3-67.6s-19.1-3.3-28.6,5.4c-6.1,5.5-12.9,15.4-12.9,15.4l-16.6,24.2c-.9,1.2-1.8,2.6-3.5,2.6s-2.8-1.3-3.5-2.6l-16.8-24.1s-6.7-9.9-12.9-15.4c-9.4-8.7-28.6-5.4-28.6-5.4l45.4,67.4-45.4,67.3s20,2.6,29.4-6.1c6.1-5.5,12-14.6,12-14.6l16.6-24.1c.9-1.2,1.8-2.6,3.5-2.6s2.8,1.3,3.5,2.6l16.6,24.1s6.2,8.9,12.2,14.6c9.4,8.7,29.1,6.1,29.1,6.1l-44.8-67.2Z" transform="translate(0 -19.723)" style="fill:#2e3133"/></svg>